<?xml version="1.0" encoding="UTF-8" standalone="no"?><!DOCTYPE svg PUBLIC "-//W3C//DTD SVG 1.1//EN" "http://www.w3.org/Graphics/SVG/1.1/DTD/svg11.dtd"><svg width="100%" height="100%" viewBox="0 0 71 24" version="1.1" xmlns="http://www.w3.org/2000/svg" xmlns:xlink="http://www.w3.org/1999/xlink" xml:space="preserve" xmlns:serif="http://www.serif.com/" style="fill-rule:evenodd;clip-rule:evenodd;stroke-linecap:round;stroke-linejoin:round;stroke-miterlimit:1.5;"><rect id="Plan-de-travail2" serif:id="Plan de travail2" x="0" y="0" width="70.114" height="23.992" style="fill:none;"/><path d="M2.99,19.462c0.071,1.493 1.876,-16.358 3.707,-13.332c1.83,3.026 3.412,11.204 2.968,13.367" style="fill:none;stroke:#000;stroke-width:0.24px;"/><path d="M2.6,14.07c-0.217,0.585 6.511,-1.009 7.141,-0.147" style="fill:none;stroke:#000;stroke-width:0.24px;"/><path d="M14.551,7.07c-3.467,0.153 -3.844,4.148 -3.473,7.744c0.428,4.143 1.145,4.479 3.779,4.637" style="fill:none;stroke:#000;stroke-width:0.24px;"/><path d="M19.967,7.205c-1.692,-0.026 -4.106,0.998 -3.955,6.822c0.059,2.287 -0.157,5.911 4.007,5.3" style="fill:none;stroke:#000;stroke-width:0.24px;"/><path d="M32.198,7.199c-2.38,0.141 -3.854,1.588 -3.704,4.251c0.15,2.663 4.148,2.013 4.107,5.602c-0.019,1.634 -1.452,3.095 -4.744,1.746" style="fill:none;stroke:#000;stroke-width:0.24px;"/><path d="M37.856,7.218c-1.907,0 -3.39,0.887 -3.344,3.155c0.06,2.994 3.213,2.83 3.914,5.288c0.725,2.546 -1.267,4.286 -4.056,3.263" style="fill:none;stroke:#000;stroke-width:0.24px;"/><path d="M25.84,7.701c-1.224,0.055 -2.417,-0.037 -3.414,0.157c-0.562,0.11 -0.504,3.1 -0.525,5.883c-0.017,2.376 -0.239,5.168 0.211,5.506c0.722,0.543 2.053,0.091 3.846,0.048" style="fill:none;stroke:#000;stroke-width:0.24px;"/><path d="M24.715,13.574c-1.762,0.334 -2.965,0 -3.495,0.141" style="fill:none;stroke:#000;stroke-width:0.24px;"/><path d="M42.395,7.493c-0.114,0.799 -0.323,10.973 -0.111,11.553" style="fill:none;stroke:#000;stroke-width:0.24px;"/><path d="M41.013,19.188c0.321,0.062 2.692,-0.022 2.913,-0.12" style="fill:none;stroke:#000;stroke-width:0.24px;"/><path d="M43.652,7.449c0.153,0.005 -2.113,-0.015 -2.423,-0.019" style="fill:none;stroke:#000;stroke-width:0.24px;"/><path d="M48.306,6.6c-0.066,0.548 -0.189,12.427 0.217,12.928" style="fill:none;stroke:#000;stroke-width:0.24px;"/><path d="M47.293,6.588c0.889,-0.653 4.949,0.813 5.075,2.343c0.239,2.905 -4.583,5.239 -4.745,4.472c-0.174,-0.827 5.475,1.495 5.592,3.546c0.129,2.244 -5.38,3.107 -6.13,2.17" style="fill:none;stroke:#000;stroke-width:0.24px;"/><path d="M56.279,6.711c-0.388,0.926 -0.766,12.095 -0.474,12.358c0.291,0.263 3.701,0.389 3.83,-0.155" style="fill:none;stroke:#000;stroke-width:0.24px;"/><path d="M66.3,6.976c-0.387,0.584 -3.47,-0.272 -3.954,0.037c-0.484,0.308 -0.182,11.685 0.32,11.987c0.503,0.302 3.671,0.764 4.551,0.125" style="fill:none;stroke:#000;stroke-width:0.24px;"/><path d="M62.192,13.459c-0.082,0.184 2.156,0.343 2.609,-0.043" style="fill:none;stroke:#000;stroke-width:0.24px;"/></svg>