<?xml version="1.0" encoding="UTF-8" standalone="no"?><!DOCTYPE svg PUBLIC "-//W3C//DTD SVG 1.1//EN" "http://www.w3.org/Graphics/SVG/1.1/DTD/svg11.dtd"><svg width="100%" height="100%" viewBox="0 0 72 24" version="1.1" xmlns="http://www.w3.org/2000/svg" xmlns:xlink="http://www.w3.org/1999/xlink" xml:space="preserve" xmlns:serif="http://www.serif.com/" style="fill-rule:evenodd;clip-rule:evenodd;stroke-linecap:round;stroke-linejoin:round;stroke-miterlimit:1.5;"><rect id="Plan-de-travail1" serif:id="Plan de travail1" x="0" y="0" width="72" height="24" style="fill:none;"/><clipPath id="_clip1"><rect id="Plan-de-travail11" serif:id="Plan de travail1" x="0" y="0" width="72" height="24"/></clipPath><g clip-path="url(#_clip1)"><path d="M3.068,5.522c0.946,0.599 1.415,14.254 -0.468,13.9" style="fill:none;stroke:#000;stroke-width:0.24px;"/><path d="M1.822,6.201c-0.583,-0.884 7.527,-2.495 7.815,5.675c0.107,3.025 -0.286,6.13 -1.608,6.787c-2.407,1.198 -4.66,0.302 -5.691,0.003" style="fill:none;stroke:#000;stroke-width:0.24px;"/><path d="M10.857,7.136c-0.076,2.998 5.173,3.82 5.658,0.045" style="fill:none;stroke:#000;stroke-width:0.24px;"/><path d="M13.756,9.735c0.292,2.938 0.173,8.642 -0.012,9.307" style="fill:none;stroke:#000;stroke-width:0.24px;"/><path d="M19.24,18.922c0.376,-0.142 -0.024,-11.572 -0.131,-11.765c-0.108,-0.194 3.995,11.613 4.623,11.601c0.627,-0.012 0.265,-11.159 0.122,-11.854" style="fill:none;stroke:#000;stroke-width:0.24px;"/><path d="M26.866,19.15c0.599,0.162 1.856,-12.189 2.586,-11.911c0.731,0.278 3.055,11.463 3.024,11.765" style="fill:none;stroke:#000;stroke-width:0.24px;"/><path d="M27.399,14.363c-0.65,0.165 4.567,-0.493 4.595,0.042" style="fill:none;stroke:#000;stroke-width:0.24px;"/><path d="M35.582,18.96c0.358,-0.117 -0.483,-11.415 -0.247,-11.72c0.236,-0.305 2.284,5.136 2.55,5.057c0.265,-0.079 2.231,-5.602 2.463,-4.861c0.232,0.741 0.759,11.325 0.545,11.497" style="fill:none;stroke:#000;stroke-width:0.24px;"/><path d="M44.729,8.398c0.029,0.327 0.272,10.384 0.082,10.328" style="fill:none;stroke:#000;stroke-width:0.24px;"/><path d="M43.189,8.469c-0.172,0.1 3.701,-0.496 3.675,-0.155" style="fill:none;stroke:#000;stroke-width:0.24px;"/><path d="M43.291,18.787c-0.297,0.066 3.109,-0.16 3.34,0.072" style="fill:none;stroke:#000;stroke-width:0.24px;"/><path d="M51.773,6.924c-2.611,-1.036 -4.279,11.88 -0.045,11.94c4.234,0.059 5.315,-11.088 -0.811,-11.784" style="fill:none;stroke:#000;stroke-width:0.24px;"/><path d="M53.051,17.353c-0.328,0.155 2.061,1.443 2.453,1.603" style="fill:none;stroke:#000;stroke-width:0.24px;"/><path d="M57.553,7.137c-0.391,0.422 -1.473,11.906 2.614,11.863c4.088,-0.043 1.81,-10.563 1.167,-11.574" style="fill:none;stroke:#000;stroke-width:0.24px;"/><path d="M69.344,6.352c-3.572,0.087 -3.879,2.969 -3.996,5.794c-0.126,3.028 -0.499,6.806 4.029,6.711" style="fill:none;stroke:#000;stroke-width:0.24px;"/><path d="M64.957,12.984c-0.392,0.137 2.388,0.053 2.795,-0.054" style="fill:none;stroke:#000;stroke-width:0.24px;"/></g></svg>