<?xml version="1.0" encoding="utf-8"?>
<!-- Generator: Adobe Illustrator 16.0.0, SVG Export Plug-In . SVG Version: 6.00 Build 0)  -->
<!DOCTYPE svg PUBLIC "-//W3C//DTD SVG 1.1//EN" "http://www.w3.org/Graphics/SVG/1.1/DTD/svg11.dtd">
<svg version="1.1" id="Calque_1" xmlns="http://www.w3.org/2000/svg" xmlns:xlink="http://www.w3.org/1999/xlink" x="0px" y="0px"
	 width="200px" height="65px" viewBox="0 0 200 65" enable-background="new 0 0 200 65" xml:space="preserve">
<g>
	<g>
		<path fill="#1A80B6" d="M184.801,64.854H0v-50.37C0,6.437,5.973-0.111,13.315-0.111h184.8v50.37
			C198.115,58.307,192.142,64.854,184.801,64.854z M1.942,62.725h182.858c6.271,0,11.372-5.593,11.372-12.466V2.019H13.315
			c-6.271,0-11.373,5.592-11.373,12.466V62.725z"/>
	</g>
</g>
<g>
	<rect x="12.886" y="45.042" fill="none" width="246.437" height="35.113"/>
	<path fill="#1A80B6" d="M17.045,55.201c0.34,0,0.621-0.028,0.842-0.085s0.399-0.134,0.534-0.232
		c0.134-0.098,0.227-0.214,0.278-0.348c0.051-0.134,0.077-0.283,0.077-0.448c0-0.351-0.165-0.642-0.495-0.874
		c-0.33-0.231-0.897-0.481-1.701-0.75c-0.351-0.123-0.701-0.265-1.052-0.425s-0.665-0.361-0.943-0.604s-0.505-0.536-0.68-0.881
		c-0.175-0.346-0.263-0.766-0.263-1.261c0-0.494,0.093-0.94,0.278-1.337c0.186-0.397,0.448-0.734,0.789-1.013
		c0.34-0.278,0.752-0.492,1.237-0.643c0.484-0.148,1.031-0.224,1.639-0.224c0.721,0,1.345,0.077,1.871,0.231
		c0.525,0.155,0.958,0.325,1.299,0.511l-0.696,1.901c-0.299-0.154-0.632-0.291-0.998-0.409s-0.807-0.178-1.322-0.178
		c-0.578,0-0.993,0.08-1.245,0.239c-0.252,0.16-0.378,0.405-0.378,0.734c0,0.196,0.046,0.361,0.139,0.495s0.224,0.255,0.394,0.363
		s0.366,0.206,0.587,0.294s0.466,0.178,0.735,0.271c0.557,0.206,1.041,0.41,1.453,0.61c0.413,0.201,0.755,0.436,1.028,0.704
		c0.273,0.268,0.477,0.582,0.611,0.943c0.134,0.36,0.201,0.799,0.201,1.314c0,1-0.351,1.775-1.052,2.327
		c-0.701,0.551-1.757,0.827-3.169,0.827c-0.475,0-0.902-0.029-1.284-0.085c-0.381-0.058-0.719-0.127-1.013-0.209
		c-0.294-0.083-0.546-0.17-0.758-0.263s-0.389-0.181-0.533-0.264l0.68-1.917c0.319,0.176,0.714,0.333,1.183,0.472
		C15.79,55.132,16.365,55.201,17.045,55.201z"/>
	<path fill="#1A80B6" d="M41.43,46.325v2.057h-3.232v8.659h-2.412v-8.659h-3.232v-2.057H41.43z"/>
	<path fill="#1A80B6" d="M53.645,57.041V46.325h7.237v2.025h-4.824v2.104h4.283v1.979h-4.283v2.582h5.18v2.025H53.645z"/>
	<path fill="#1A80B6" d="M72.834,51.382h4.484v2.087h-4.484V51.382z"/>
	<path fill="#1A80B6" d="M94.807,57.258c-1.742,0-3.069-0.484-3.981-1.454c-0.912-0.969-1.369-2.345-1.369-4.128
		c0-0.887,0.139-1.678,0.417-2.374c0.278-0.695,0.66-1.283,1.145-1.763c0.484-0.479,1.062-0.843,1.732-1.09
		c0.67-0.248,1.396-0.371,2.18-0.371c0.453,0,0.866,0.033,1.237,0.101s0.696,0.145,0.974,0.231c0.278,0.088,0.51,0.178,0.696,0.271
		s0.319,0.165,0.402,0.217l-0.696,1.948c-0.33-0.175-0.714-0.324-1.152-0.448s-0.936-0.186-1.492-0.186
		c-0.371,0-0.734,0.062-1.09,0.186c-0.356,0.124-0.67,0.322-0.943,0.595c-0.273,0.273-0.492,0.627-0.657,1.06
		s-0.247,0.959-0.247,1.577c0,0.495,0.054,0.956,0.162,1.384s0.283,0.797,0.526,1.105c0.242,0.31,0.559,0.555,0.951,0.735
		c0.392,0.18,0.866,0.271,1.423,0.271c0.35,0,0.665-0.021,0.943-0.063c0.278-0.041,0.526-0.09,0.743-0.146
		c0.216-0.057,0.407-0.121,0.572-0.193s0.314-0.14,0.449-0.201l0.665,1.933c-0.34,0.207-0.819,0.393-1.438,0.557
		C96.337,57.175,95.621,57.258,94.807,57.258z"/>
	<path fill="#1A80B6" d="M113.748,46.201c1.608,0,2.84,0.286,3.695,0.858s1.283,1.462,1.283,2.668c0,0.752-0.172,1.363-0.518,1.832
		s-0.843,0.838-1.492,1.105c0.217,0.269,0.443,0.575,0.681,0.92c0.236,0.346,0.472,0.706,0.703,1.083
		c0.232,0.376,0.456,0.768,0.673,1.175s0.417,0.807,0.603,1.198h-2.696c-0.196-0.351-0.396-0.706-0.598-1.067
		c-0.201-0.36-0.408-0.711-0.62-1.051c-0.213-0.341-0.422-0.662-0.629-0.967c-0.207-0.304-0.414-0.58-0.621-0.827h-1.19v3.912
		h-2.412V46.48c0.525-0.104,1.069-0.176,1.631-0.217S113.305,46.201,113.748,46.201z M113.887,48.258
		c-0.175,0-0.332,0.006-0.471,0.016c-0.14,0.011-0.271,0.021-0.395,0.031v2.907h0.68c0.907,0,1.557-0.113,1.949-0.341
		c0.392-0.227,0.587-0.613,0.587-1.159c0-0.526-0.198-0.899-0.595-1.121C115.245,48.369,114.66,48.258,113.887,48.258z"/>
	<path fill="#1A80B6" d="M141.52,51.676c0,0.917-0.137,1.724-0.41,2.42c-0.272,0.695-0.646,1.278-1.121,1.747
		c-0.474,0.469-1.038,0.822-1.692,1.059c-0.655,0.237-1.358,0.356-2.111,0.356c-0.731,0-1.422-0.119-2.071-0.356
		c-0.649-0.236-1.217-0.59-1.701-1.059s-0.866-1.052-1.145-1.747c-0.278-0.696-0.417-1.503-0.417-2.42
		c0-0.918,0.144-1.725,0.433-2.42c0.288-0.696,0.678-1.281,1.167-1.755c0.49-0.475,1.057-0.83,1.701-1.067s1.322-0.355,2.033-0.355
		c0.732,0,1.423,0.118,2.072,0.355s1.217,0.593,1.701,1.067c0.484,0.474,0.866,1.059,1.145,1.755
		C141.381,49.951,141.52,50.758,141.52,51.676z M133.34,51.676c0,0.525,0.064,1,0.193,1.422c0.129,0.423,0.314,0.786,0.557,1.091
		c0.242,0.304,0.538,0.538,0.889,0.703s0.753,0.247,1.206,0.247c0.443,0,0.843-0.082,1.198-0.247
		c0.356-0.165,0.655-0.399,0.897-0.703c0.242-0.305,0.428-0.668,0.557-1.091c0.129-0.422,0.193-0.896,0.193-1.422
		c0-0.526-0.064-1.003-0.193-1.431s-0.314-0.794-0.557-1.098s-0.541-0.539-0.897-0.704c-0.355-0.164-0.755-0.247-1.198-0.247
		c-0.453,0-0.855,0.085-1.206,0.255s-0.646,0.407-0.889,0.712c-0.242,0.304-0.428,0.67-0.557,1.098S133.34,51.16,133.34,51.676z"/>
	<path fill="#1A80B6" d="M154.198,46.325h2.412v10.716h-2.412V46.325z"/>
	<path fill="#1A80B6" d="M175.914,57.041c-0.302-0.597-0.632-1.201-0.991-1.813c-0.358-0.612-0.771-1.13-1.235-1.553
		c-0.145,0.159-0.327,0.381-0.549,0.665c-0.221,0.283-0.442,0.585-0.663,0.903c-0.222,0.319-0.429,0.65-0.622,0.992
		c-0.192,0.342-0.336,0.611-0.43,0.806h-2.753c0.451-0.837,0.983-1.7,1.598-2.592c0.613-0.891,1.298-1.837,2.054-2.838l-3.496-5.286
		h2.922l2.042,3.104l2.087-3.104h2.752l-3.478,5.172c0.912,1.143,1.663,2.19,2.252,3.143c0.59,0.952,1.056,1.752,1.396,2.401
		H175.914z"/>
</g>
<g>
	<rect x="9.699" y="4.777" fill="none" width="217.434" height="75.378"/>
	<path fill="#1A80B6" d="M13.513,8.734h7.438v33.04h-7.438V8.734z"/>
	<path fill="#1A80B6" d="M37.351,8.734c0.574,1.049,1.234,2.344,1.984,3.886c0.749,1.542,1.529,3.211,2.342,5.006
		c0.813,1.796,1.617,3.632,2.415,5.507c0.796,1.876,1.545,3.64,2.247,5.292c0.701-1.652,1.45-3.416,2.247-5.292
		c0.796-1.875,1.601-3.71,2.414-5.507c0.813-1.795,1.594-3.464,2.343-5.006c0.749-1.542,1.41-2.837,1.983-3.886h6.771
		c0.317,2.193,0.611,4.648,0.882,7.366c0.27,2.717,0.508,5.547,0.715,8.486c0.206,2.94,0.397,5.888,0.572,8.845
		c0.174,2.955,0.326,5.737,0.453,8.343h-7.247c-0.095-3.21-0.223-6.706-0.381-10.489c-0.159-3.782-0.397-7.596-0.715-11.442
		c-0.575,1.335-1.212,2.813-1.913,4.434c-0.702,1.621-1.396,3.242-2.081,4.863c-0.686,1.621-1.347,3.17-1.985,4.648
		c-0.638,1.479-1.18,2.742-1.626,3.791h-5.197c-0.447-1.049-0.989-2.313-1.626-3.791c-0.638-1.478-1.3-3.027-1.985-4.648
		c-0.685-1.621-1.379-3.242-2.08-4.863c-0.702-1.621-1.339-3.099-1.913-4.434c-0.318,3.846-0.557,7.66-0.715,11.442
		c-0.159,3.783-0.286,7.279-0.381,10.489h-7.247c0.126-2.605,0.278-5.388,0.453-8.343c0.174-2.957,0.365-5.904,0.572-8.845
		c0.206-2.939,0.445-5.769,0.715-8.486c0.27-2.718,0.564-5.173,0.882-7.366H37.351z"/>
	<path fill="#1A80B6" d="M81.261,8.353c4.926,0,8.708,0.866,11.347,2.599c2.638,1.732,3.957,4.569,3.957,8.51
		c0,3.973-1.335,6.841-4.005,8.605s-6.484,2.646-11.442,2.646h-2.336v11.061h-7.438V9.211c1.621-0.317,3.337-0.541,5.149-0.667
		C78.305,8.417,79.894,8.353,81.261,8.353z M81.738,14.694c-0.541,0-1.073,0.017-1.597,0.048c-0.524,0.032-0.977,0.064-1.359,0.095
		v9.536h2.336c2.575,0,4.513-0.35,5.816-1.049c1.303-0.699,1.955-2.002,1.955-3.91c0-0.921-0.167-1.685-0.501-2.289
		c-0.333-0.604-0.811-1.088-1.43-1.454c-0.62-0.365-1.375-0.62-2.265-0.763C83.804,14.766,82.818,14.694,81.738,14.694z"/>
	<path fill="#1A80B6" d="M120.973,41.774c-0.368-1.148-0.764-2.327-1.187-3.537s-0.845-2.415-1.264-3.614h-12.904
		c-0.417,1.205-0.836,2.413-1.255,3.624s-0.81,2.388-1.171,3.527h-7.724c1.244-3.56,2.423-6.849,3.539-9.869
		c1.116-3.019,2.208-5.864,3.276-8.534s2.12-5.204,3.156-7.604c1.036-2.399,2.112-4.744,3.229-7.032h7.05
		c1.086,2.289,2.155,4.633,3.21,7.032c1.053,2.4,2.115,4.935,3.185,7.604c1.07,2.67,2.164,5.515,3.281,8.534
		c1.117,3.021,2.299,6.31,3.545,9.869H120.973z M112.036,16.22c-0.166,0.479-0.408,1.133-0.729,1.958
		c-0.319,0.826-0.683,1.78-1.091,2.863s-0.865,2.274-1.369,3.576c-0.505,1.301-1.017,2.666-1.538,4.094h9.448
		c-0.506-1.433-0.995-2.802-1.469-4.107s-0.925-2.499-1.351-3.583c-0.427-1.082-0.801-2.036-1.123-2.861
		C112.494,17.335,112.234,16.689,112.036,16.22z"/>
	<path fill="#1A80B6" d="M147.055,42.441c-5.372,0-9.464-1.493-12.276-4.481c-2.813-2.987-4.22-7.23-4.22-12.729
		c0-2.733,0.429-5.173,1.287-7.318s2.034-3.957,3.528-5.435c1.493-1.478,3.273-2.598,5.34-3.361
		c2.065-0.763,4.307-1.144,6.723-1.144c1.397,0,2.67,0.104,3.813,0.31c1.145,0.207,2.146,0.445,3.004,0.715
		c0.858,0.271,1.573,0.548,2.146,0.834s0.984,0.509,1.239,0.667l-2.146,6.007c-1.018-0.54-2.201-1.001-3.552-1.383
		c-1.352-0.381-2.884-0.572-4.601-0.572c-1.145,0-2.265,0.191-3.361,0.572s-2.066,0.994-2.908,1.835
		c-0.843,0.843-1.519,1.931-2.026,3.266c-0.509,1.335-0.763,2.956-0.763,4.863c0,1.526,0.167,2.949,0.501,4.267
		c0.333,1.319,0.873,2.456,1.621,3.409c0.746,0.953,1.724,1.709,2.932,2.265c1.208,0.557,2.67,0.834,4.387,0.834
		c1.08,0,2.05-0.063,2.908-0.19c0.857-0.127,1.621-0.278,2.288-0.453c0.668-0.174,1.255-0.373,1.764-0.596
		c0.509-0.222,0.97-0.43,1.383-0.62l2.051,5.96c-1.05,0.636-2.527,1.208-4.435,1.716C151.774,42.188,149.565,42.441,147.055,42.441z
		"/>
	<path fill="#1A80B6" d="M188.391,8.734v6.341h-9.965v26.699h-7.438V15.076h-9.965V8.734H188.391z"/>
</g>
<g>
</g>
<g>
</g>
<g>
</g>
<g>
</g>
<g>
</g>
<g>
</g>
<g>
</g>
<g>
</g>
<g>
</g>
<g>
</g>
<g>
</g>
<g>
</g>
<g>
</g>
<g>
</g>
<g>
</g>
</svg>
